<svg xmlns="http://www.w3.org/2000/svg" version="1.1" xmlns:xlink="http://www.w3.org/1999/xlink" xmlns:svgjs="http://svgjs.dev/svgjs" width="128" height="128" viewBox="0 0 128 128"><g transform="matrix(0.8046875,0,0,0.8046875,12.760752631578946,25.850698564293964)"><svg viewBox="0 0 95 71" data-background-color="#22c55e" preserveAspectRatio="xMidYMid meet" height="95" width="128" xmlns="http://www.w3.org/2000/svg" xmlns:xlink="http://www.w3.org/1999/xlink"><g id="tight-bounds" transform="matrix(1,0,0,1,-0.24049999999999727,-0.06812964254507392)"><svg viewBox="0 0 95.48100000000001 71.13625928509015" height="71.13625928509015" width="95.48100000000001"><g><svg viewBox="0 0 95.48100000000001 71.13625928509015" height="71.13625928509015" width="95.48100000000001"><g><svg viewBox="0 0 95.48100000000001 71.13625928509015" height="71.13625928509015" width="95.48100000000001"><g id="textblocktransform"><svg viewBox="0 0 95.48100000000001 71.13625928509015" height="71.13625928509015" width="95.48100000000001" id="textblock"><g><svg viewBox="0 0 95.48100000000001 71.13625928509015" height="71.13625928509015" width="95.48100000000001"><g><svg viewBox="0 0 95.48100000000001 71.13625928509015" height="71.13625928509015" width="95.48100000000001"><g><svg xmlns="http://www.w3.org/2000/svg" xmlns:xlink="http://www.w3.org/1999/xlink" version="1.1" x="0" y="0" viewBox="0.33436899440108964 12.181816032044399 90.49721046821575 67.42318396795561" enable-background="new 0 0 91 91" xml:space="preserve" height="71.13625928509015" width="95.48100000000001" class="icon-icon-0" data-fill-palette-color="accent" id="icon-0"><g fill="#ec2784" data-fill-palette-color="accent"><path d="M85.177 38.638c-0.564 0.083-1.099 0.162-1.567 0.073-2.408-0.452-4.057-3.081-5.385-5.682 1.524-1.085 2.762-2.794 3.309-5.892 0.395-2.258 0.012-4.403-0.328-6.296-0.274-1.535-0.534-2.982-0.38-4.341 0.131-1.161-0.655-2.226-1.803-2.444-1.145-0.232-2.27 0.49-2.568 1.619-0.343 1.285-1.149 2.237-2.222 3.063-0.101-0.589-0.059-1.271 0.038-2.211 0.066-0.674 0.14-1.372 0.131-2.131-0.004-0.774-0.411-1.492-1.076-1.894-0.666-0.399-1.488-0.429-2.178-0.068-2.388 1.236-5.068 3.508-6.403 6.482-5.984-2.526-16.532-4.634-28.051-3.658-8.69 0.738-19.838 3.787-26.675 13.66-0.355-0.208-0.694-0.439-1.006-0.686 2.168-1.01 2.974-3.115 2.62-4.863-0.464-2.28-2.571-3.734-5.059-3.417-0.248 0.031-0.482 0.071-0.701 0.119 0.009-0.528-0.168-1.059-0.539-1.49-0.805-0.932-2.21-1.041-3.146-0.238-1.996 1.716-2.419 4.432-1.079 6.916 0.397 0.734 0.91 1.371 1.499 1.896 0.595 1.379 1.573 2.661 2.599 3.662 0.734 0.713 1.608 1.393 2.579 1.96-0.137 0.28-0.291 0.541-0.423 0.829-2.986 6.519-3.4 12.86-1.192 18.333 1.341 3.333 3.613 6.197 6.684 8.483-1.706 5.615-1.028 8.48 3.093 13.992 1.292 1.73 2.603 2.601 3.903 2.601 0.353 0 0.704-0.063 1.052-0.19 1.125-0.409 1.895-1.341 2.359-2.964 2.519 2.002 7.7 5.744 11.233 5.744 0.684 0 1.306-0.142 1.834-0.462 0.857-0.521 2.152-1.847 1.188-4.896-0.47-1.485-1.633-2.672-2.662-3.718-0.637-0.649-1.627-2.021-1.657-2.097 1.637 0.231 3.301 0.351 4.958 0.351 3.204 0 6.361-0.394 9.168-1.021-0.036 3.167 0.29 6.935 3.593 8.979 1.381 0.856 2.526 1.167 3.46 1.167 1.055 0 1.839-0.396 2.396-0.854 0.862-0.706 1.313-1.703 1.516-2.78 2.66 3.316 6.31 3.167 6.503 3.141 2.186-0.323 3.104-1.614 3.454-2.356 1.29-2.716-0.603-6.303-2.654-9.742-0.196-0.329-1.031-1.894-1.275-2.45 0.299-0.058 0.588-0.121 0.889-0.178 8.468-1.654 18.068-3.532 23.104-12.192 2.129-3.663 2.881-6.323 2.365-8.377C89.628 37.977 86.508 38.445 85.177 38.638zM69.772 19.166c0.076 0.627 0.237 1.276 0.516 1.932-0.366 0.2-0.74 0.403-1.113 0.621-0.12-0.202-0.252-0.397-0.44-0.556-0.026-0.024-0.063-0.047-0.09-0.066C68.895 20.417 69.286 19.766 69.772 19.166zM16.789 62.817c0.738 0.366 2.531 1.059 2.646 1.085-0.416 1.436-0.158 6.813-0.228 7.424C16.479 67.627 15.932 66.085 16.789 62.817zM53.942 73.313c-0.17-0.072-0.393-0.185-0.68-0.362-1.492-0.926-1.542-3.354-1.451-6.43 0-0.024 0-0.047 0-0.073 0.11-0.041 0.358-0.066 0.373-0.041 0.02 0.033 0.554 0.936 1.418 2.198C53.359 69.125 54.029 72.628 53.942 73.313zM83.257 49.984c-2.155-0.006-5.695-0.078-7.186-0.825-1.098-0.552-2.439-0.106-2.992 0.997-0.551 1.103-0.104 2.44 0.998 2.991 1.108 0.555 2.524 0.868 4.081 1.049-4.028 2.196-14.677 4.289-15.11 4.373-0.24-1.624-0.154-3.114 0.47-4.099 0.659-1.041 0.353-2.419-0.688-3.078-1.038-0.661-2.418-0.355-3.077 0.687-3.449 5.432 0.934 13.643 1.446 14.564 0.145 0.26 3.024 5.516 3.021 6.347-0.021 0.004-0.038 0.008-0.061 0.011-0.002 0-0.004 0-0.006 0-1.52 0-5.987-5.118-8.096-8.806-1.779-3.113-1.761-7.198-1.744-11.145l0.004-1.191c0-1.229-0.998-2.228-2.229-2.228-1.23 0-2.229 0.998-2.229 2.228l-0.004 1.172c-0.012 2.915-0.008 6.093 0.711 9.129-4.103 1.593-10.733 2.7-16.744 1.863 0.01-0.015 0.016-0.025 0.024-0.04 0.401-0.661 0.903-1.375 1.429-2.125 2.579-3.687 6.894-9.855 1.786-15.092-0.861-0.883-2.276-0.899-3.153-0.04-0.881 0.86-0.899 2.272-0.04 3.153 2.166 2.218 1.057 4.7-2.249 9.422-0.584 0.835-1.137 1.63-1.583 2.36-0.526 0.864-1.76 4.238-1.653 4.611-0.081 1.249 0.135 2.594 0.805 4.142 0.542 1.261 1.53 2.267 2.484 3.236 0.276 0.282-5.545-2.982-6.749-4.186-0.526-0.526-0.899-5.263-0.693-5.817 0.788-2.106 1.77-4.733 0.073-7.612-0.624-1.065-1.994-1.419-3.051-0.791-1.063 0.623-1.417 1.99-0.791 3.051 0.26 0.443 0.34 0.877 0.288 1.407-0.01-0.006-0.018-0.013-0.028-0.015-5.15-2.03-8.752-5.284-10.418-9.416-1.738-4.311-1.353-9.432 1.111-14.812 0.195-0.427 0.417-0.823 0.629-1.228 0.298 0.03 0.595 0.059 0.897 0.059 0.917 0 1.853-0.153 2.786-0.496 1.154-0.423 1.747-1.706 1.321-2.863-0.296-0.81-1.016-1.333-1.817-1.431 5.976-6.922 14.81-9.202 21.838-9.799 13.539-1.153 25.252 2.269 28.493 4.654-1.79 1.791-2.997 4.232-2.608 7.936 0.129 1.224 1.244 2.092 2.452 1.984 1.224-0.129 2.113-1.226 1.984-2.452-0.392-3.709 1.62-4.974 5.508-7.068 1.341-0.723 2.76-1.486 4.035-2.458 0.248 1.429 0.431 2.789 0.207 4.068-0.526 2.978-1.498 3.295-4.386 4.232-0.399 0.129-0.814 0.266-1.241 0.413-1.164 0.401-1.78 1.674-1.377 2.837 0.32 0.921 1.183 1.5 2.106 1.5 0.242 0 0.487-0.041 0.73-0.123 0.399-0.139 0.788-0.264 1.161-0.385 0 0 0 0 0.002 0 1.688 3.335 3.189 7.682 8.647 8.256 1.226 0.129 3.353-0.092 3.5-0.11C86.306 43.048 83.685 49.444 83.257 49.984z" fill="#ec2784" data-fill-palette-color="accent"></path><path d="M69.326 37.405c-1.586 0-2.874 1.29-2.874 2.875s1.288 2.875 2.874 2.875c1.585 0 2.875-1.29 2.875-2.875S70.911 37.405 69.326 37.405z" fill="#ec2784" data-fill-palette-color="accent"></path></g></svg></g></svg></g></svg></g></svg></g></svg></g><g></g></svg></g><defs></defs></svg><rect width="95.48100000000001" height="71.13625928509015" fill="none" stroke="none" visibility="hidden"></rect></g></svg></g></svg>